<svg xmlns="http://www.w3.org/2000/svg" version="1.1" xmlns:xlink="http://www.w3.org/1999/xlink" xmlns:svgjs="http://svgjs.dev/svgjs" width="1000" height="1000" viewBox="0 0 1000 1000"><rect width="1000" height="1000" fill="#000000"></rect><g transform="matrix(0.7,0,0,0.7,149.57575940743908,445.18207430478054)"><svg viewBox="0 0 396 62" data-background-color="#ffffff" preserveAspectRatio="xMidYMid meet" height="156" width="1000" xmlns="http://www.w3.org/2000/svg" xmlns:xlink="http://www.w3.org/1999/xlink"><g id="tight-bounds" transform="matrix(1,0,0,1,0.23999899375820632,0.12373070607699788)"><svg viewBox="0 0 395.52 61.752538587846026" height="61.752538587846026" width="395.52"><g><svg viewBox="0 0 459.50544804415114 71.74258675078863" height="61.752538587846026" width="395.52"><g><svg viewBox="0 0 395.52 71.74258675078863" height="71.74258675078863" width="395.52"><g><svg viewBox="0 0 395.52 71.74258675078863" height="71.74258675078863" width="395.52"><g><svg viewBox="0 0 395.52 71.74258675078863" height="71.74258675078863" width="395.52"><g transform="matrix(1,0,0,1,0,0)"><svg width="395.52" viewBox="2.7300000190734863 -37.70000076293945 216.69000244140625 39.310001373291016" height="71.74258675078863" data-palette-color="#5a5a5d"><path d="M35.35 0.78L35.35 0.78Q29.44 0.68 23.27 0.49 17.09 0.29 11.18-0.39L11.18-0.39Q10.5-0.49 9.64-0.56 8.79-0.63 8.11-0.88L8.11-0.88Q6.69-1.42 5.88-2.08 5.08-2.73 4.64-3.59 4.2-4.44 4-5.49 3.81-6.54 3.66-7.86L3.66-7.86Q3.22-11.28 2.98-14.72 2.73-18.16 2.73-21.63L2.73-21.63Q2.73-22.27 2.76-23.17 2.78-24.07 2.86-25.05 2.93-26.03 3.08-26.9 3.22-27.78 3.47-28.37L3.47-28.37Q4.64-30.91 6.91-32.45 9.18-33.98 11.91-34.84 14.65-35.69 17.55-35.96 20.46-36.23 22.9-36.23L22.9-36.23Q28.13-36.23 33.35-35.21L33.35-35.21 33.74-24.76Q28.76-26.32 23.44-26.32L23.44-26.32Q22.46-26.32 20.85-26.22 19.24-26.12 17.55-25.85 15.87-25.59 14.4-25.07 12.94-24.56 12.35-23.68L12.35-23.68Q12.06-23.24 11.84-22.46 11.62-21.68 11.5-20.83 11.38-19.97 11.33-19.14 11.28-18.31 11.28-17.77L11.28-17.77Q11.28-16.65 11.45-15.11 11.62-13.57 11.87-11.96 12.11-10.35 12.45-8.89 12.79-7.42 13.18-6.49L13.18-6.49 21.83-6.49 21.39-15.92Q24.76-15.67 28.15-15.7 31.54-15.72 34.91-15.72L34.91-15.72Q35.25-11.57 35.3-7.47 35.35-3.37 35.35 0.78ZM72.56-0.15L72.56-0.15 62.84 0.1Q62.74-3.08 62.69-6.2 62.64-9.33 62.55-12.5L62.55-12.5 53.37-12.06Q53.32-11.57 53.32-11.11 53.32-10.64 53.32-10.21L53.32-10.21Q53.32-7.47 53.54-4.76 53.76-2.05 54 0.63L54 0.63Q53.02 0.68 52.02 0.71 51.02 0.73 50.05 0.73L50.05 0.73Q48.14 0.73 46.21 0.66 44.28 0.59 42.38 0.59L42.38 0.59Q42.48-3.96 42.62-8.4 42.77-12.84 42.87-17.38L42.87-17.38Q42.97-21.83 42.99-26.17 43.02-30.52 43.06-34.91L43.06-34.91 51.22-34.91Q51.61-31.25 51.76-27.61 51.9-23.97 52.19-20.31L52.19-20.31Q54.54-20.36 56.83-20.36 59.13-20.36 61.52-20.41L61.52-20.41 62.01-36.23Q62.69-36.28 63.35-36.28 64.01-36.28 64.69-36.28L64.69-36.28Q66.65-36.28 68.53-36.18 70.41-36.08 72.31-35.74L72.31-35.74Q72.56-26.81 72.51-17.94 72.46-9.08 72.56-0.15ZM111.37-0.15L111.37-0.15 103.95 0.98Q103.17-1.51 102.39-3.98 101.61-6.45 100.87-8.94L100.87-8.94 88.86-8.5 87.35-2 79.83-2Q80.51-10.3 81.25-18.51 81.98-26.71 82.66-34.96L82.66-34.96Q86.18-35.55 89.67-35.94 93.16-36.33 96.72-36.33L96.72-36.33Q101.07-36.33 105.41-36.18L105.41-36.18Q106.2-31.1 106.95-26.05 107.71-21 108.54-15.92L108.54-15.92Q109.13-11.91 109.83-8.01 110.54-4.1 111.37-0.15ZM89.79-15.33L99.16-15.58Q99.12-16.02 98.92-17.21 98.73-18.41 98.48-19.75 98.24-21.09 97.92-22.19 97.6-23.29 97.31-23.49L97.31-23.49Q97.21-23.54 96.85-23.58 96.48-23.63 96.06-23.68 95.65-23.73 95.26-23.73 94.87-23.73 94.72-23.73L94.72-23.73Q94.48-23.73 94.06-23.73 93.65-23.73 93.18-23.71 92.72-23.68 92.3-23.58 91.89-23.49 91.74-23.34L91.74-23.34Q91.65-23.29 91.5-22.71 91.35-22.12 91.13-21.26 90.91-20.41 90.69-19.43 90.47-18.46 90.28-17.58 90.08-16.7 89.96-16.06 89.84-15.43 89.79-15.33L89.79-15.33ZM151.6-24.56L151.6-24.56Q151.6-20.56 149.16-18.26 146.72-15.97 142.72-15.77L142.72-15.77Q147.55-7.71 151.16 0.73L151.16 0.73 136.91 1.07Q136.52-2.88 135.73-6.2 134.95-9.52 133.54-13.18L133.54-13.18Q131.93-13.09 130.34-12.94 128.75-12.79 127.19-12.7L127.19-12.7 127.43-1.61Q124.65-1.46 121.87-1.46L121.87-1.46Q120.45-1.46 119.11-1.51 117.77-1.56 116.4-1.71L116.4-1.71Q116.74-6.2 117.03-10.67 117.33-15.14 117.38-19.58L117.38-19.58Q117.52-27.49 117.81-35.4L117.81-35.4Q122.4-35.64 126.97-35.94 131.54-36.23 136.13-36.23L136.13-36.23Q137.3-36.23 138.66-36.18 140.03-36.13 141.42-35.91 142.81-35.69 144.11-35.3 145.4-34.91 146.43-34.28L146.43-34.28Q148.92-32.71 150.26-30.1 151.6-27.49 151.6-24.56ZM140.28-25.34L140.28-25.34Q140.28-25.73 140.25-26.42 140.23-27.1 140.13-27.81 140.03-28.52 139.84-29.13 139.64-29.74 139.3-30.03L139.3-30.03Q139.06-30.22 138.47-30.32 137.88-30.42 137.22-30.49 136.56-30.57 135.95-30.59 135.34-30.62 135.1-30.62L135.1-30.62Q133.15-30.62 131.27-30.42 129.39-30.22 127.53-29.93L127.53-29.93 128.85-20.46Q129.92-20.21 131.1-20.12 132.27-20.02 133.39-20.02L133.39-20.02Q133.88-20.02 134.83-20.07 135.78-20.12 136.78-20.26 137.79-20.41 138.64-20.68 139.49-20.95 139.84-21.39L139.84-21.39Q139.98-21.58 140.08-22.14 140.18-22.71 140.2-23.32 140.23-23.93 140.25-24.51 140.28-25.1 140.28-25.34ZM176.31-35.84L176.31-35.84Q176.06-32.86 176.11-29.91 176.16-26.95 176.06-24.02L176.06-24.02 170.64-24.22Q170.6-22.51 170.57-20.85 170.55-19.19 170.55-17.48L170.55-17.48Q170.55-15.43 170.57-13.45 170.6-11.47 170.64-9.42L170.64-9.42 175.62-9.33Q175.53-7.91 175.53-6.45 175.53-4.98 175.53-3.52L175.53-3.52Q175.53-2.29 175.6-1.07 175.67 0.15 175.92 1.32L175.92 1.32 158.39 1.61Q158.39-0.78 158.34-3.1 158.29-5.42 158.14-7.81L158.14-7.81 161.32-7.86Q161.07-12.45 160.76-16.94 160.44-21.44 160.1-25.98L160.1-25.98 155.46-26.56Q155.36-28.61 155.29-30.64 155.21-32.67 155.12-34.72L155.12-34.72Q160.44-34.91 165.69-35.18 170.94-35.45 176.31-35.84ZM219.42-24.17L219.42-24.17Q219.42-23.34 219.32-22.61 219.23-21.88 218.98-21.09L218.98-21.09Q218.69-20.26 217.86-19.51 217.03-18.75 216-18.09 214.98-17.43 213.9-16.97 212.83-16.5 212.1-16.26L212.1-16.26Q212.34-16.21 213.07-16.09 213.81-15.97 214.61-15.77 215.42-15.58 216.1-15.31 216.78-15.04 216.98-14.75L216.98-14.75Q217.32-14.16 217.54-13.31 217.76-12.45 217.86-11.5 217.96-10.55 218.01-9.64 218.05-8.74 218.05-8.06L218.05-8.06Q218.05-7.81 218.05-7.54 218.05-7.28 218.01-7.03L218.01-7.03Q217.91-6.54 217.32-5.74 216.74-4.93 215.95-4.1 215.17-3.27 214.42-2.56 213.66-1.86 213.27-1.56L213.27-1.56Q212.73-1.17 212.22-0.88 211.71-0.59 211.12-0.34L211.12-0.34Q210.68-0.15 209.24-0.05 207.8 0.05 206.19 0.12 204.58 0.2 203.16 0.22 201.75 0.24 201.26 0.24L201.26 0.24Q197.35 0.24 193.54 0.12 189.73 0 185.83-0.2L185.83-0.2Q185.93-3.66 185.97-7.1 186.02-10.55 186.02-14.06L186.02-14.06Q186.02-18.02 185.78-21.92 185.53-25.83 185.24-29.74L185.24-29.74 181.48-30.08Q181.24-32.03 181.12-33.91 180.99-35.79 180.8-37.7L180.8-37.7Q184.8-37.6 188.81-37.5 192.81-37.4 196.81-37.3L196.81-37.3Q198.52-37.26 201.16-36.99 203.8-36.72 206.55-36.28 209.31-35.84 211.78-35.21 214.25-34.57 215.66-33.79L215.66-33.79Q216.74-33.2 217.44-32.03 218.15-30.86 218.59-29.47 219.03-28.08 219.23-26.66 219.42-25.24 219.42-24.17ZM206.43-24.37L206.43-24.37Q206.43-24.85 206.38-25.61 206.34-26.37 206.19-27.15 206.04-27.93 205.8-28.61 205.55-29.3 205.21-29.74L205.21-29.74Q205.11-29.88 204.68-29.98 204.24-30.08 203.72-30.13 203.21-30.18 202.72-30.18 202.23-30.18 202.09-30.18L202.09-30.18Q199.65-30.18 197.25-29.91 194.86-29.64 192.47-29.25L192.47-29.25Q192.76-26.86 193.01-24.46 193.25-22.07 193.59-19.68L193.59-19.68Q194.18-19.68 195.89-19.78 197.59-19.87 199.52-20.02 201.45-20.17 203.11-20.39 204.77-20.61 205.26-20.9L205.26-20.9Q206.09-21.44 206.26-22.46 206.43-23.49 206.43-24.37ZM206.04-10.6L206.04-10.6Q206.04-11.33 205.85-12.08 205.65-12.84 205.07-13.33L205.07-13.33Q204.92-13.48 204.38-13.57 203.84-13.67 203.26-13.7 202.67-13.72 202.14-13.75 201.6-13.77 201.4-13.77L201.4-13.77Q199.3-13.77 197.25-13.55 195.2-13.33 193.15-13.09L193.15-13.09 193.93-6.88Q194.18-6.88 195.08-6.93 195.98-6.98 197.18-7.06 198.38-7.13 199.72-7.23 201.06-7.32 202.23-7.47 203.41-7.62 204.24-7.79 205.07-7.96 205.26-8.2L205.26-8.2Q205.7-8.74 205.87-9.33 206.04-9.91 206.04-10.6Z" opacity="1" transform="matrix(1,0,0,1,0,0)" fill="#ffffff" class="undefined-text-0" data-fill-palette-color="primary" id="text-0"></path></svg></g></svg></g></svg></g></svg></g><g transform="matrix(1,0,0,1,412.45670290977915,11.084229652996843)"><svg viewBox="0 0 47.04874513437199 49.57412744479495" height="49.57412744479495" width="47.04874513437199"><g><svg xmlns="http://www.w3.org/2000/svg" xmlns:xlink="http://www.w3.org/1999/xlink" version="1.1" x="0" y="0" viewBox="7.485250473022461 4.9900007247924805 83.67849731445312 88.17001342773438" enable-background="new 0 0 100 100" xml:space="preserve" height="49.57412744479495" width="47.04874513437199" class="icon-icon-0" data-fill-palette-color="accent" id="icon-0"><path d="M90.861 51.847c-3.641-5.361-16.009-22.855-22.282-22.855h-6.1c-0.419 0-0.817 0.158-1.132 0.427l-9.787-6.07v-3.296c3.369-0.794 5.887-3.818 5.887-7.426 0-4.211-3.426-7.637-7.637-7.637s-7.637 3.426-7.637 7.637c0 0.966 0.784 1.75 1.75 1.75s1.75-0.784 1.75-1.75c0-2.281 1.856-4.137 4.137-4.137 2.281 0 4.137 1.856 4.137 4.137s-1.855 4.137-4.137 4.137c-0.966 0-1.75 0.784-1.75 1.75v4.838l-9.328 5.784c-0.216-0.093-0.451-0.143-0.691-0.143h-7.797c-5.947 0-18.68 17.477-22.441 22.833-0.527 0.752-0.385 1.782 0.326 2.362l14.08 11.479c0.749 0.609 1.851 0.498 2.462-0.251l0.99-1.214v27.208c0 0.967 0.784 1.75 1.75 1.75h44.167c0.966 0 1.75-0.783 1.75-1.75v-26.79l0.649 0.797c0.611 0.748 1.714 0.86 2.463 0.25L90.52 54.187C91.223 53.613 91.371 52.598 90.861 51.847zM49.812 26.382l10.709 6.643c-0.753 3.063-3.539 5.346-6.859 5.346h-6.834c-3.482 0-6.373-2.532-6.931-5.84L49.812 26.382zM75.586 61.847l-2.65-3.249c-0.469-0.574-1.248-0.792-1.943-0.543-0.697 0.248-1.163 0.908-1.163 1.648v29.955H29.162V59.285c0-0.74-0.466-1.4-1.163-1.648-0.696-0.248-1.476-0.031-1.943 0.543l-2.99 3.667L11.61 52.508c2.298-3.207 4.783-6.44 7.185-9.348 1.032-1.25 2.048-2.439 3.028-3.54 3.756-4.218 6.969-7.129 8.422-7.129h3.075 3.032c0.073 0.683 0.215 1.345 0.413 1.982 0.865 2.779 2.858 5.065 5.444 6.329 1.396 0.682 2.962 1.069 4.619 1.069h6.834c1.661 0 3.232-0.387 4.632-1.069 2.45-1.193 4.362-3.301 5.3-5.873 0.282-0.776 0.485-1.59 0.576-2.438h2.132 2.277c1.427 0 4.264 2.456 7.594 6.123 1.384 1.524 2.853 3.257 4.342 5.112 2.211 2.754 4.464 5.772 6.544 8.767L75.586 61.847z" fill="#ffffff" data-fill-palette-color="accent"></path></svg></g></svg></g></svg></g><defs></defs></svg><rect width="395.52" height="61.752538587846026" fill="none" stroke="none" visibility="hidden"></rect></g></svg></g></svg>